<svg width="102.7" height="48.4" viewBox="0 0 102.7 48.4" xmlns="http://www.w3.org/2000/svg"><g id="svgGroup" stroke-linecap="round" fill-rule="evenodd" font-size="9pt" stroke="#000" stroke-width="0.25mm" fill="black" style="stroke:#000;stroke-width:0.25mm;fill:black"><path d="M 38.15 5.15 L 37.7 5.15 Q 34.3 5.15 30.925 4.55 Q 27.55 3.95 24.2 3.45 Q 22.25 3.15 20.25 3.15 Q 19.411 3.15 18.309 3.281 A 27.803 27.803 0 0 0 17.6 3.375 Q 16.05 3.6 14.575 4.175 A 7.954 7.954 0 0 0 13.066 4.948 A 6.599 6.599 0 0 0 12.1 5.725 A 3.272 3.272 0 0 0 11.104 8.015 A 4.358 4.358 0 0 0 11.1 8.2 Q 11.1 9.55 12.025 10.525 A 7.604 7.604 0 0 0 14.146 12.086 A 8.56 8.56 0 0 0 14.225 12.125 Q 15.5 12.75 16.6 13.05 Q 17.25 13.25 17.9 13.35 L 19.2 13.55 Q 19.277 13.588 19.383 13.627 A 2.84 2.84 0 0 0 19.45 13.65 Q 19.589 13.696 19.599 13.829 A 0.279 0.279 0 0 1 19.6 13.85 A 0.145 0.145 0 0 1 19.523 13.983 Q 19.468 14.015 19.375 14.025 A 7.454 7.454 0 0 1 19.27 14.036 Q 19.14 14.049 19.067 14.05 A 0.924 0.924 0 0 1 19.05 14.05 L 18.65 14.05 A 29.604 29.604 0 0 1 18.06 13.936 Q 17.246 13.771 16.162 13.512 A 93.546 93.546 0 0 1 15.8 13.425 A 22.095 22.095 0 0 1 12.41 12.297 A 24.184 24.184 0 0 1 12.3 12.25 A 11.621 11.621 0 0 1 10.596 11.354 A 9.168 9.168 0 0 1 9.35 10.4 A 3.784 3.784 0 0 1 8.499 9.29 A 3.425 3.425 0 0 1 8.15 7.75 A 3.126 3.126 0 0 1 8.339 6.659 A 2.967 2.967 0 0 1 8.425 6.45 Q 8.7 5.85 9.15 5.35 A 7.015 7.015 0 0 1 11.396 3.675 A 8.566 8.566 0 0 1 12.1 3.375 Q 13.9 2.7 15.85 2.425 A 29.898 29.898 0 0 1 17.713 2.219 A 21.89 21.89 0 0 1 19.4 2.15 Q 20.7 2.15 21.95 2.25 Q 23.2 2.35 24.45 2.55 Q 28 3.1 31.575 3.625 Q 35.15 4.15 38.7 4.15 L 39.15 4.15 A 68.193 68.193 0 0 0 40.404 3.295 A 56.208 56.208 0 0 0 41.1 2.8 A 3.347 3.347 0 0 1 42.401 2.241 A 4.693 4.693 0 0 1 43.35 2.15 Q 43.6 2.15 44.125 2.25 A 1.094 1.094 0 0 1 44.33 2.308 Q 44.44 2.353 44.512 2.419 A 0.428 0.428 0 0 1 44.65 2.75 A 0.909 0.909 0 0 1 44.488 3.26 Q 44.345 3.476 44.075 3.675 A 4.203 4.203 0 0 1 43.409 4.073 Q 43.084 4.231 42.701 4.358 A 6.953 6.953 0 0 1 42.65 4.375 A 19.879 19.879 0 0 1 41.617 4.68 A 16.664 16.664 0 0 1 41.025 4.825 Q 40.432 4.959 40.058 5.02 A 5.765 5.765 0 0 1 39.85 5.05 Q 36.5 7.75 33.375 10.85 Q 30.25 13.95 27.2 17.05 A 125.511 125.511 0 0 1 29.256 17.119 A 147.539 147.539 0 0 1 31.425 17.225 A 22.754 22.754 0 0 1 34.355 17.574 A 19.585 19.585 0 0 1 35.6 17.85 Q 35.65 17.85 35.95 17.925 A 0.997 0.997 0 0 1 36.059 17.958 Q 36.167 17.999 36.214 18.054 A 0.145 0.145 0 0 1 36.25 18.15 A 0.159 0.159 0 0 1 36.197 18.261 Q 36.092 18.367 35.78 18.466 A 3.95 3.95 0 0 1 35.575 18.525 A 15.68 15.68 0 0 1 35.339 18.584 Q 34.863 18.7 34.7 18.7 Q 32.5 18.7 30.25 18.6 Q 28 18.5 25.8 18.5 Q 23.35 21.05 20.925 23.675 Q 18.5 26.3 16.1 28.95 Q 17.544 29.672 19.319 30.571 A 1046.448 1046.448 0 0 1 21 31.425 A 146.126 146.126 0 0 0 26.636 34.139 A 158.782 158.782 0 0 0 26.825 34.225 A 51.324 51.324 0 0 0 31.306 36.02 A 45.423 45.423 0 0 0 32.775 36.5 Q 35.7 37.4 38 37.4 A 3.69 3.69 0 0 0 38.609 37.353 Q 39.148 37.263 39.525 37 A 1.233 1.233 0 0 0 39.982 36.383 Q 40.06 36.167 40.086 35.897 A 3.023 3.023 0 0 0 40.1 35.6 A 4.061 4.061 0 0 0 39.954 34.538 A 4.743 4.743 0 0 0 39.875 34.275 A 8.438 8.438 0 0 1 39.777 33.961 Q 39.694 33.677 39.666 33.483 A 1.271 1.271 0 0 1 39.65 33.301 A 0.526 0.526 0 0 1 39.661 33.189 Q 39.702 33 39.9 33 Q 40.228 33 40.534 33.724 A 4.447 4.447 0 0 1 40.575 33.825 Q 40.9 34.65 41.125 35.55 A 16.063 16.063 0 0 1 41.218 35.942 Q 41.341 36.489 41.349 36.759 A 1.238 1.238 0 0 1 41.35 36.8 Q 41.35 38.05 40.55 38.6 A 3.08 3.08 0 0 1 39.318 39.091 A 4.171 4.171 0 0 1 38.6 39.15 Q 37.9 39.15 37.15 39 Q 33.25 38.25 29.375 36.9 Q 25.5 35.55 21.725 33.975 Q 17.95 32.4 14.25 30.9 A 50.551 50.551 0 0 1 13.85 31.295 Q 13.223 31.909 12.377 32.699 A 134.658 134.658 0 0 1 12.35 32.725 A 28.128 28.128 0 0 1 10.185 34.549 A 31.075 31.075 0 0 1 9.85 34.8 A 19.247 19.247 0 0 1 7.994 36.021 A 16.416 16.416 0 0 1 7.15 36.475 A 7.105 7.105 0 0 1 6.038 36.924 Q 5.369 37.127 4.742 37.148 A 4.316 4.316 0 0 1 4.6 37.15 A 3.106 3.106 0 0 1 3.828 37.06 A 2.075 2.075 0 0 1 2.7 36.35 A 3.954 3.954 0 0 1 1.983 34.97 A 4.976 4.976 0 0 1 1.85 34.4 A 13.941 13.941 0 0 1 1.688 33.154 A 11.048 11.048 0 0 1 1.65 32.25 A 5.306 5.306 0 0 1 1.65 32.242 Q 1.651 31.989 1.675 31.3 A 11.033 11.033 0 0 1 1.731 30.504 A 8.924 8.924 0 0 1 1.8 30 Q 1.9 29.4 2.05 29.4 Q 2.135 29.4 2.184 29.543 A 0.71 0.71 0 0 1 2.2 29.6 Q 2.25 29.8 2.25 30 A 3.208 3.208 0 0 1 2.281 30.246 Q 2.292 30.371 2.296 30.515 A 7.041 7.041 0 0 1 2.3 30.75 A 12.558 12.558 0 0 0 2.318 31.392 Q 2.336 31.749 2.373 32.151 A 24.532 24.532 0 0 0 2.425 32.65 A 5.211 5.211 0 0 0 2.664 33.741 A 4.228 4.228 0 0 0 3.05 34.575 A 1.638 1.638 0 0 0 4.243 35.369 A 2.514 2.514 0 0 0 4.65 35.4 A 3.192 3.192 0 0 0 5.517 35.273 Q 5.88 35.17 6.268 34.985 A 6.307 6.307 0 0 0 6.625 34.8 A 16.535 16.535 0 0 0 8.047 33.905 A 19.863 19.863 0 0 0 8.8 33.35 Q 9.9 32.5 10.8 31.6 L 12.3 30.1 Q 11.35 29.7 9.8 29.1 Q 8.25 28.5 6.725 28 A 14.08 14.08 0 0 0 5.829 27.736 Q 4.985 27.521 4.367 27.502 A 3.813 3.813 0 0 0 4.25 27.5 A 4.224 4.224 0 0 0 3.088 27.651 A 3.126 3.126 0 0 0 1.575 28.6 A 3.843 3.843 0 0 0 0.632 30.775 A 5.124 5.124 0 0 0 0.6 31.35 Q 0.6 31.85 0.775 32.3 Q 0.95 32.75 0.95 33.25 Q 0.95 33.293 0.912 33.412 A 2.744 2.744 0 0 1 0.9 33.45 A 0.403 0.403 0 0 1 0.876 33.508 Q 0.861 33.538 0.842 33.558 A 0.121 0.121 0 0 1 0.75 33.6 Q 0.456 33.6 0.303 33.086 A 2.563 2.563 0 0 1 0.25 32.875 Q 0.1 32.15 0.05 31.325 Q 0.009 30.651 0.002 30.361 A 4.403 4.403 0 0 1 0 30.25 A 8.403 8.403 0 0 1 0.139 28.677 Q 0.317 27.744 0.723 27.002 A 4.754 4.754 0 0 1 1.075 26.45 A 3.331 3.331 0 0 1 2.735 25.278 Q 3.313 25.082 4.025 25.024 A 7.717 7.717 0 0 1 4.65 25 A 10.639 10.639 0 0 1 6.84 25.236 A 12.871 12.871 0 0 1 7.875 25.5 Q 9.55 26 11.2 26.7 Q 12.85 27.4 14.2 28.05 Q 16.4 25.6 18.525 23.2 Q 20.65 20.8 22.95 18.5 Q 22.194 18.534 21.225 18.592 A 200.417 200.417 0 0 0 20.3 18.65 A 36.126 36.126 0 0 0 17.227 18.985 A 39.418 39.418 0 0 0 17.125 19 A 19.197 19.197 0 0 0 14.8 19.502 A 16.811 16.811 0 0 0 14.075 19.725 A 8.495 8.495 0 0 0 13.031 20.147 Q 12.503 20.405 12.086 20.717 A 4.629 4.629 0 0 0 11.8 20.95 A 2.644 2.644 0 0 0 11.531 21.206 A 2.009 2.009 0 0 0 11.325 21.475 Q 11.15 21.75 11 22.1 Q 10.967 22.201 10.888 22.324 A 2.042 2.042 0 0 1 10.8 22.45 A 0.618 0.618 0 0 1 10.702 22.555 A 0.384 0.384 0 0 1 10.45 22.65 Q 10.25 22.65 10.25 22.45 Q 10.25 22.35 10.275 22.25 A 0.955 0.955 0 0 1 10.332 22.088 A 1.088 1.088 0 0 1 10.35 22.05 A 5.036 5.036 0 0 1 12.195 19.746 A 6.49 6.49 0 0 1 12.7 19.425 A 13.207 13.207 0 0 1 15.199 18.329 A 16.206 16.206 0 0 1 16.575 17.95 A 30.471 30.471 0 0 1 20.587 17.298 A 28.086 28.086 0 0 1 20.85 17.275 Q 22.95 17.1 24.45 17.05 Q 27.7 13.85 31.1 10.825 Q 34.5 7.8 38.15 5.15 Z M 38.27 37.485 A 3.088 3.088 0 0 0 39.15 37.6 A 1.581 1.581 0 0 0 39.249 37.596 Q 39.5 37.58 40.016 37.493 A 27.049 27.049 0 0 0 40.4 37.425 A 14.736 14.736 0 0 0 40.925 37.319 A 12.569 12.569 0 0 0 42.175 36.975 A 7.706 7.706 0 0 0 42.217 36.961 Q 42.802 36.762 42.95 36.603 A 0.156 0.156 0 0 0 43 36.5 A 0.081 0.081 0 0 0 42.977 36.441 Q 42.948 36.412 42.885 36.404 A 0.458 0.458 0 0 0 42.825 36.4 L 42.65 36.4 Q 42.2 36.4 41.775 36.525 Q 41.35 36.65 40.9 36.65 Q 40.507 36.65 40.318 36.382 A 0.847 0.847 0 0 1 40.2 36.125 A 5.005 5.005 0 0 1 40.151 35.939 Q 40.05 35.528 40.05 35.2 A 5.966 5.966 0 0 1 40.075 34.664 A 7.204 7.204 0 0 1 40.225 33.725 A 22.055 22.055 0 0 1 40.383 33.071 A 17.48 17.48 0 0 1 40.6 32.3 A 36.51 36.51 0 0 1 41.81 28.801 A 47.23 47.23 0 0 1 43.725 24.65 A 73.44 73.44 0 0 1 43.987 24.15 A 79.78 79.78 0 0 1 48.475 16.7 Q 51.15 12.75 53.95 9.125 Q 56.75 5.5 59.25 2.6 Q 59.841 2.684 60.526 2.832 A 27.884 27.884 0 0 1 61.65 3.1 Q 63 3.45 64.25 4.05 A 6.882 6.882 0 0 1 64.703 4.288 A 5.746 5.746 0 0 1 66.3 5.625 A 3.407 3.407 0 0 1 66.924 6.781 A 4.07 4.07 0 0 1 67.1 8 A 4.941 4.941 0 0 1 66.902 9.384 A 5.785 5.785 0 0 1 66.2 10.9 A 10.159 10.159 0 0 1 65.654 11.668 A 11.414 11.414 0 0 1 63.9 13.45 Q 62.5 14.6 60.975 15.475 Q 60.117 15.967 59.347 16.341 A 17.779 17.779 0 0 1 58.2 16.85 Q 56.9 17.35 55.525 17.675 Q 54.15 18 52.75 18.1 A 1.099 1.099 0 0 0 52.722 18.1 Q 52.538 18.105 51.963 18.166 A 59.026 59.026 0 0 0 51.65 18.2 A 14.32 14.32 0 0 0 51.206 18.256 A 12.423 12.423 0 0 0 49.95 18.5 Q 49.488 18.616 49.293 18.798 A 0.404 0.404 0 0 0 49.15 19.1 Q 49.15 19.375 49.505 19.542 A 1.639 1.639 0 0 0 49.725 19.625 Q 50.3 19.8 50.925 19.85 Q 51.55 19.9 51.75 19.9 Q 53.75 19.9 55.45 19.15 Q 56.55 19.25 57.65 19.625 A 5.326 5.326 0 0 1 58.115 19.808 A 4.345 4.345 0 0 1 59.475 20.75 Q 60.2 21.5 60.2 22.85 Q 60.2 23.15 60.15 23.45 A 3.016 3.016 0 0 1 60.113 23.637 A 2.501 2.501 0 0 1 60 24 Q 59.156 24 58.098 24.127 A 27.286 27.286 0 0 0 56.75 24.325 Q 54.85 24.65 53 25.125 A 26.759 26.759 0 0 0 52.491 25.261 Q 50.967 25.684 49.85 26.2 A 16.798 16.798 0 0 0 49.435 26.403 Q 49.076 26.584 48.67 26.807 A 35.055 35.055 0 0 0 47.85 27.275 A 16.377 16.377 0 0 0 47.563 27.447 A 17.94 17.94 0 0 0 45.6 28.85 A 10.833 10.833 0 0 0 45.042 29.339 A 9.112 9.112 0 0 0 43.775 30.8 A 4.668 4.668 0 0 0 43.543 31.172 A 3.693 3.693 0 0 0 43.05 33 A 2.571 2.571 0 0 0 43.089 33.458 Q 43.257 34.385 44.15 34.75 A 6.602 6.602 0 0 0 44.434 34.859 A 5.677 5.677 0 0 0 46.35 35.2 A 9.788 9.788 0 0 0 46.959 35.181 Q 47.852 35.125 48.842 34.909 A 18.029 18.029 0 0 0 50.75 34.375 Q 53.2 33.55 55.65 32.2 A 27.817 27.817 0 0 0 56.551 31.681 A 24.537 24.537 0 0 0 60.05 29.15 A 18.036 18.036 0 0 0 60.641 28.612 Q 62.143 27.181 62.9 25.75 A 2.372 2.372 0 0 1 63.057 25.878 Q 63.178 25.986 63.264 26.097 A 1.093 1.093 0 0 1 63.425 26.375 A 2.2 2.2 0 0 1 63.451 26.445 Q 63.504 26.6 63.542 26.782 A 3.918 3.918 0 0 1 63.6 27.15 A 0.097 0.097 0 0 1 63.609 27.161 Q 63.652 27.219 63.675 27.4 A 0.683 0.683 0 0 0 63.683 27.447 Q 63.697 27.519 63.724 27.558 A 0.09 0.09 0 0 0 63.8 27.6 A 0.243 0.243 0 0 0 63.93 27.565 Q 64.072 27.478 64.125 27.175 Q 64.186 26.83 64.198 26.699 A 0.587 0.587 0 0 0 64.2 26.65 Q 64.2 25.4 63.3 24.8 A 6.225 6.225 0 0 0 63.363 24.601 Q 63.55 23.969 63.55 23.45 A 4.412 4.412 0 0 0 63.54 23.155 A 3.211 3.211 0 0 0 62.45 20.875 Q 61.35 19.9 60.05 19.3 A 6.925 6.925 0 0 0 59.521 19.077 A 5.739 5.739 0 0 0 58.375 18.775 A 16.658 16.658 0 0 0 58.063 18.731 A 18.694 18.694 0 0 0 56.65 18.6 A 7.843 7.843 0 0 0 57.116 18.554 Q 57.773 18.469 58.495 18.27 A 14.508 14.508 0 0 0 59.9 17.8 A 18.536 18.536 0 0 0 61.025 17.319 A 21.502 21.502 0 0 0 63.5 15.95 Q 65.3 14.8 66.825 13.375 A 15.119 15.119 0 0 0 67.72 12.467 A 12.466 12.466 0 0 0 69.275 10.35 A 7.632 7.632 0 0 0 69.763 9.35 A 5.918 5.918 0 0 0 70.2 7.15 A 4.948 4.948 0 0 0 70.174 6.634 A 3.628 3.628 0 0 0 69.125 4.375 A 6.975 6.975 0 0 0 68.084 3.521 A 8.366 8.366 0 0 0 66.45 2.675 Q 64.85 2.05 63.175 1.775 Q 62.128 1.603 61.267 1.5 A 26.753 26.753 0 0 0 60.3 1.4 A 1.252 1.252 0 0 1 60.366 1.312 Q 60.478 1.172 60.7 0.95 A 2.098 2.098 0 0 0 60.802 0.841 Q 60.924 0.7 60.971 0.585 A 0.36 0.36 0 0 0 61 0.45 A 0.31 0.31 0 0 0 60.878 0.193 Q 60.821 0.148 60.738 0.118 A 0.945 0.945 0 0 0 60.575 0.075 A 11.892 11.892 0 0 0 60.431 0.05 Q 60.211 0.014 60.086 0.004 A 1.071 1.071 0 0 0 60 0 A 3.874 3.874 0 0 0 59.795 0.006 Q 59.271 0.033 58.625 0.2 Q 58.262 0.294 57.959 0.431 A 2.872 2.872 0 0 0 57.35 0.8 A 0.084 0.084 0 0 1 57.345 0.826 Q 57.324 0.886 57.225 1.025 Q 57.127 1.162 57.076 1.222 A 0.509 0.509 0 0 1 57.05 1.25 A 37.876 37.876 0 0 0 56.308 1.243 Q 54.039 1.243 51.275 1.5 Q 48.05 1.8 44.8 2.6 A 32.611 32.611 0 0 0 43.796 2.864 A 28.753 28.753 0 0 0 38.775 4.775 A 15.614 15.614 0 0 0 37.452 5.511 A 12.827 12.827 0 0 0 34.25 8.3 Q 33.5 9.25 33.025 10.375 Q 32.55 11.5 32.55 12.7 A 4.556 4.556 0 0 0 32.756 14.025 A 6.289 6.289 0 0 0 33.2 15.1 Q 33.617 15.901 34.341 16.189 A 2.444 2.444 0 0 0 35.25 16.35 A 0.673 0.673 0 0 0 35.293 16.349 Q 35.45 16.339 35.45 16.25 A 0.392 0.392 0 0 0 35.382 16.032 Q 35.339 15.965 35.267 15.903 A 1.067 1.067 0 0 0 35.125 15.8 A 1.7 1.7 0 0 1 34.973 15.694 Q 34.724 15.5 34.475 15.175 A 1.347 1.347 0 0 1 34.29 14.839 Q 34.217 14.648 34.182 14.413 A 3.157 3.157 0 0 1 34.15 13.95 Q 34.15 13.178 34.441 12.371 A 6.666 6.666 0 0 1 34.975 11.25 Q 35.439 10.463 35.895 9.817 A 13.739 13.739 0 0 1 36.6 8.9 Q 38.8 6.45 41.8 5 Q 44.8 3.55 48.125 2.925 A 38.722 38.722 0 0 1 48.957 2.778 A 34.541 34.541 0 0 1 54.6 2.3 L 55.4 2.3 Q 55.8 2.3 56.2 2.35 Q 56.05 2.575 55.731 2.941 A 16.764 16.764 0 0 1 55.5 3.2 Q 55 3.75 54.6 4.35 Q 54.245 4.883 54.245 5.259 A 0.736 0.736 0 0 0 54.25 5.35 A 66.951 66.951 0 0 0 54.012 5.655 Q 53.264 6.619 52.277 7.956 A 215.53 215.53 0 0 0 51.475 9.05 Q 49.8 11.35 47.85 14.2 Q 45.9 17.05 43.975 20.075 Q 42.05 23.1 40.45 26 A 63.18 63.18 0 0 0 40.241 26.383 Q 39.517 27.716 38.934 28.947 A 37.58 37.58 0 0 0 37.9 31.325 A 23.06 23.06 0 0 0 37.881 31.375 Q 37.273 32.936 37.062 34.153 A 7.044 7.044 0 0 0 36.95 35.35 Q 36.95 37.092 38.27 37.485 Z M 99.95 17.55 L 100 17.4 Q 100.85 16.65 102 16.65 A 0.855 0.855 0 0 1 102.1 16.657 Q 102.207 16.669 102.356 16.707 A 3.731 3.731 0 0 1 102.425 16.725 Q 102.678 16.794 102.698 17.01 A 0.418 0.418 0 0 1 102.7 17.05 Q 102.7 17.1 102.675 17.125 L 102.65 17.15 L 102.05 18.2 Q 101.4 19.4 100.85 20.7 L 99.75 23.3 Q 98.75 25.8 97.75 28.35 L 95.75 33.45 A 4.908 4.908 0 0 1 96.282 33.402 A 4.335 4.335 0 0 1 96.425 33.4 L 97.1 33.4 A 0.741 0.741 0 0 1 97.184 33.406 Q 97.322 33.422 97.593 33.483 A 13.572 13.572 0 0 1 97.775 33.525 A 1.825 1.825 0 0 1 97.96 33.579 Q 98.141 33.642 98.225 33.729 A 0.239 0.239 0 0 1 98.3 33.9 Q 98.3 34.042 97.718 34.094 A 5.248 5.248 0 0 1 97.65 34.1 A 11.296 11.296 0 0 1 96.783 34.133 A 11.274 11.274 0 0 1 96.35 34.125 Q 95.737 34.101 95.658 34.1 A 0.471 0.471 0 0 0 95.65 34.1 L 95.5 34.1 A 34.997 34.997 0 0 1 93.962 37.304 A 42.336 42.336 0 0 1 92.975 39.025 Q 91.45 41.55 89.425 43.675 Q 87.4 45.8 84.925 47.1 Q 82.45 48.4 79.5 48.4 A 8.472 8.472 0 0 1 77.597 48.175 A 10.307 10.307 0 0 1 76.7 47.925 A 6.096 6.096 0 0 1 74.796 46.917 A 5.725 5.725 0 0 1 74.25 46.425 A 3.481 3.481 0 0 1 73.275 44.287 A 4.72 4.72 0 0 1 73.25 43.8 Q 73.25 42.35 74.075 41.15 A 9.259 9.259 0 0 1 75.63 39.42 A 10.9 10.9 0 0 1 76.175 38.975 Q 77.45 38 78.85 37.25 Q 79.977 36.646 80.909 36.237 A 18.933 18.933 0 0 1 81.35 36.05 A 28.682 28.682 0 0 1 85.448 34.729 A 33.983 33.983 0 0 1 87.475 34.3 A 60.949 60.949 0 0 1 91.504 33.706 A 51.149 51.149 0 0 1 93.8 33.5 Q 94.35 32.1 94.875 30.7 Q 95.4 29.3 95.9 27.9 Q 96.3 26.9 96.65 25.9 Q 97 24.9 97.25 23.9 Q 96.75 24.75 95.65 26.1 Q 94.55 27.45 93.2 28.825 A 19.54 19.54 0 0 1 91.673 30.229 A 15.577 15.577 0 0 1 90.475 31.125 Q 89.608 31.708 88.87 31.924 A 2.928 2.928 0 0 1 88.05 32.05 Q 87.714 32.05 87.511 31.924 A 0.595 0.595 0 0 1 87.275 31.65 A 2.084 2.084 0 0 1 87.117 31.053 A 2.612 2.612 0 0 1 87.1 30.75 A 5.756 5.756 0 0 1 87.159 29.963 Q 87.272 29.15 87.6 28.1 A 21.161 21.161 0 0 1 88.281 26.245 A 27.154 27.154 0 0 1 88.975 24.725 A 20.708 20.708 0 0 1 90.94 21.497 A 19.313 19.313 0 0 1 90.975 21.45 A 13.575 13.575 0 0 1 92.131 20.094 A 10.221 10.221 0 0 1 93.35 19.025 Q 94.478 18.19 95.566 18.19 A 2.824 2.824 0 0 1 95.8 18.2 Q 96.4 17.9 97.025 17.65 Q 97.65 17.4 98.3 17.4 A 6.972 6.972 0 0 1 99.019 17.438 A 7.733 7.733 0 0 1 99.125 17.45 Q 99.55 17.5 99.95 17.55 Z M 66.888 31.726 A 1.939 1.939 0 0 0 67.45 31.8 Q 67.7 31.8 67.95 31.775 A 3.665 3.665 0 0 0 68.188 31.744 A 2.723 2.723 0 0 0 68.4 31.7 Q 69.214 31.512 70.165 31.07 A 15.442 15.442 0 0 0 71.35 30.45 A 14.452 14.452 0 0 0 71.914 30.108 Q 73.161 29.313 73.9 28.45 A 2.736 2.736 0 0 0 73.985 28.33 Q 74.099 28.16 74.225 27.925 A 2.604 2.604 0 0 0 74.266 27.846 Q 74.4 27.575 74.4 27.4 A 0.673 0.673 0 0 0 74.399 27.358 Q 74.389 27.2 74.3 27.2 Q 74.178 27.2 73.809 27.497 A 7.659 7.659 0 0 0 73.625 27.65 A 31.627 31.627 0 0 1 73.277 27.943 Q 73.094 28.096 72.891 28.261 A 56.147 56.147 0 0 1 72.375 28.675 Q 71.65 29.25 70.85 29.7 A 4.731 4.731 0 0 1 70.546 29.857 Q 69.924 30.15 69.4 30.15 A 1.049 1.049 0 0 1 69.282 30.144 Q 68.65 30.072 68.65 29.2 Q 68.65 28.25 69.175 26.95 A 34.082 34.082 0 0 1 69.496 26.181 Q 69.653 25.819 69.802 25.501 A 16.345 16.345 0 0 1 70.15 24.8 Q 72.45 20.15 74.975 15.625 Q 77.5 11.1 80.4 6.75 Q 81.2 5.6 82.025 4.425 Q 82.85 3.25 83.65 2.1 Q 83.692 2.1 83.699 1.997 A 0.687 0.687 0 0 0 83.7 1.95 Q 83.7 1.6 83.175 1.525 A 13.031 13.031 0 0 0 82.939 1.493 Q 82.705 1.464 82.542 1.455 A 2.448 2.448 0 0 0 82.4 1.45 Q 82.113 1.45 81.657 1.527 A 11.005 11.005 0 0 0 81.275 1.6 Q 80.788 1.701 80.515 1.869 A 0.876 0.876 0 0 0 80.3 2.05 A 0.371 0.371 0 0 0 80.291 2.06 Q 80.181 2.178 79.775 2.775 Q 79.35 3.4 78.95 4.05 A 41.939 41.939 0 0 1 78.812 4.273 Q 78.6 4.612 78.478 4.791 A 3.244 3.244 0 0 1 78.4 4.9 A 0.82 0.82 0 0 0 78.371 5.017 Q 78.36 5.079 78.355 5.154 A 2.062 2.062 0 0 0 78.35 5.3 Q 78.35 5.488 78.389 5.714 A 3.947 3.947 0 0 0 78.45 6 A 126.592 126.592 0 0 0 76.861 8.406 A 155.049 155.049 0 0 0 74.15 12.775 Q 71.95 16.45 70 20.275 A 88.466 88.466 0 0 0 68.622 23.098 A 72.286 72.286 0 0 0 66.7 27.6 A 40.076 40.076 0 0 0 66.494 28.238 A 55.17 55.17 0 0 0 66.275 28.95 A 5.746 5.746 0 0 0 66.121 29.59 A 4.324 4.324 0 0 0 66.05 30.35 A 2.222 2.222 0 0 0 66.108 30.878 Q 66.269 31.538 66.888 31.726 Z M 79.5 19.95 L 79.5 19.85 A 2.381 2.381 0 0 1 80.274 18.05 A 3.1 3.1 0 0 1 80.475 17.875 A 6.375 6.375 0 0 1 82.352 16.852 A 7.461 7.461 0 0 1 82.75 16.725 Q 83.745 16.438 84.534 16.371 A 5.482 5.482 0 0 1 85 16.35 A 4.662 4.662 0 0 1 85.986 16.449 A 3.318 3.318 0 0 1 87.175 16.95 A 1.882 1.882 0 0 1 87.904 17.958 Q 88.05 18.408 88.05 19 A 5.878 5.878 0 0 1 87.934 20.121 Q 87.776 20.936 87.4 21.875 A 20.827 20.827 0 0 1 86.329 24.133 A 24.811 24.811 0 0 1 85.725 25.175 A 26.335 26.335 0 0 1 84.117 27.519 A 23.008 23.008 0 0 1 83.55 28.225 Q 82.4 29.6 81.45 30.4 A 2.394 2.394 0 0 0 83.179 31.292 A 3.041 3.041 0 0 0 83.4 31.3 Q 83.5 31.3 83.65 31.35 A 0.403 0.403 0 0 1 83.709 31.374 Q 83.738 31.39 83.758 31.408 A 0.121 0.121 0 0 1 83.8 31.5 A 0.344 0.344 0 0 1 83.788 31.595 Q 83.757 31.703 83.647 31.743 A 0.323 0.323 0 0 1 83.625 31.75 A 1.378 1.378 0 0 1 83.457 31.787 A 1.028 1.028 0 0 1 83.3 31.8 Q 82.65 31.8 82.075 31.475 Q 81.5 31.15 81.05 30.65 Q 79.2 32.1 76.9 32.1 A 4.6 4.6 0 0 1 76.229 32.054 Q 75.883 32.003 75.6 31.894 A 2.075 2.075 0 0 1 75.175 31.675 A 1.227 1.227 0 0 1 74.748 31.145 Q 74.563 30.731 74.551 30.087 A 4.829 4.829 0 0 1 74.55 30 A 6.934 6.934 0 0 1 74.725 28.497 Q 74.93 27.574 75.375 26.55 Q 76.2 24.65 77.35 22.875 A 35.427 35.427 0 0 1 78.192 21.632 Q 78.619 21.03 79.023 20.523 A 17.799 17.799 0 0 1 79.5 19.95 Z M 79.3 47.35 Q 81.75 47.35 83.925 46.025 A 17.376 17.376 0 0 0 87.434 43.182 A 19.825 19.825 0 0 0 87.925 42.65 Q 89.75 40.6 91.175 38.325 A 50.489 50.489 0 0 0 92.322 36.406 Q 92.868 35.441 93.304 34.555 A 29.372 29.372 0 0 0 93.5 34.15 A 40.746 40.746 0 0 0 89.811 34.586 A 49.375 49.375 0 0 0 87.475 35.025 Q 84.3 35.7 81.75 37 A 17.384 17.384 0 0 0 80.722 37.562 Q 79.931 38.027 79.025 38.65 Q 77.5 39.7 76.375 41.075 A 5.177 5.177 0 0 0 75.568 42.414 A 4.332 4.332 0 0 0 75.25 44.05 Q 75.25 45.75 76.525 46.55 Q 77.8 47.35 79.3 47.35 Z M 47.35 33.95 Q 48.95 33.95 50.8 33.1 A 18.452 18.452 0 0 0 53.434 31.607 A 21.786 21.786 0 0 0 54.45 30.875 A 22.17 22.17 0 0 0 57.003 28.604 A 19.768 19.768 0 0 0 57.625 27.925 A 17.176 17.176 0 0 0 58.554 26.768 Q 59.018 26.135 59.353 25.532 A 8.959 8.959 0 0 0 59.65 24.95 A 12.982 12.982 0 0 0 58.471 25.008 Q 57.549 25.092 56.45 25.3 Q 54.6 25.65 52.8 26.2 A 18.653 18.653 0 0 0 51.437 26.672 Q 50.801 26.921 50.266 27.195 A 9.765 9.765 0 0 0 49.8 27.45 A 13.58 13.58 0 0 0 49.222 27.819 Q 48.948 28.003 48.642 28.223 A 30.462 30.462 0 0 0 48 28.7 Q 46.95 29.5 46.15 30.5 A 4.284 4.284 0 0 0 45.678 31.219 Q 45.35 31.859 45.35 32.5 A 1.524 1.524 0 0 0 45.412 32.949 A 1.095 1.095 0 0 0 46 33.625 Q 46.65 33.95 47.35 33.95 Z M 89.8 30.35 A 0.71 0.71 0 0 0 89.993 30.321 Q 90.176 30.269 90.4 30.125 A 16.457 16.457 0 0 0 90.566 30.017 Q 90.8 29.863 90.95 29.75 A 18.122 18.122 0 0 0 93.906 27.126 A 15.083 15.083 0 0 0 95.625 24.8 A 104.818 104.818 0 0 0 98.072 20.472 A 121.398 121.398 0 0 0 98.95 18.8 A 1.496 1.496 0 0 0 98.731 18.713 Q 98.627 18.68 98.509 18.656 A 2.443 2.443 0 0 0 98.475 18.65 A 3.104 3.104 0 0 0 98.117 18.605 A 2.63 2.63 0 0 0 97.95 18.6 A 3.519 3.519 0 0 0 96.758 18.815 A 4.578 4.578 0 0 0 96.125 19.1 A 5.803 5.803 0 0 0 95.187 19.726 A 4.768 4.768 0 0 0 94.6 20.3 Q 93.862 21.077 93.108 22.232 A 21.698 21.698 0 0 0 92.675 22.925 Q 91.7 24.55 90.9 26.275 A 30.219 30.219 0 0 0 90.356 27.516 Q 89.95 28.506 89.7 29.35 Q 89.55 29.65 89.55 30 A 0.726 0.726 0 0 0 89.56 30.123 Q 89.598 30.344 89.79 30.35 A 0.346 0.346 0 0 0 89.8 30.35 Z M 81 29.75 A 9.393 9.393 0 0 0 81.886 28.766 Q 82.291 28.251 82.694 27.622 A 19.363 19.363 0 0 0 83.175 26.825 Q 84.25 24.95 85 22.925 Q 85.555 21.427 85.699 20.216 A 6.9 6.9 0 0 0 85.75 19.4 A 3.207 3.207 0 0 0 85.648 18.611 A 4.067 4.067 0 0 0 85.5 18.15 Q 85.303 17.637 84.764 17.529 A 1.592 1.592 0 0 0 84.45 17.5 A 1.653 1.653 0 0 0 83.64 17.718 A 2.288 2.288 0 0 0 83.3 17.95 A 3.205 3.205 0 0 0 82.831 18.417 A 2.491 2.491 0 0 0 82.5 18.95 A 2.444 2.444 0 0 1 82.572 19.065 Q 82.607 19.125 82.646 19.197 A 5.818 5.818 0 0 1 82.725 19.35 A 1.437 1.437 0 0 1 82.799 19.523 Q 82.85 19.672 82.85 19.8 A 0.616 0.616 0 0 1 82.845 19.883 Q 82.827 20.011 82.75 20.05 Q 82.1 20.4 81.525 20.825 A 9.762 9.762 0 0 0 80.616 21.59 A 11.109 11.109 0 0 0 80.4 21.8 Q 80.2 22.55 80.1 23.35 Q 80 24.15 80 24.95 Q 80 26.1 80.225 27.4 A 8.432 8.432 0 0 0 80.654 28.981 A 7.222 7.222 0 0 0 81 29.75 Z M 78.9 30.85 Q 79.4 30.85 79.825 30.625 Q 80.25 30.4 80.6 30.1 A 8.151 8.151 0 0 1 79.713 28.192 A 10.042 10.042 0 0 1 79.45 27.2 Q 79.1 25.55 79.1 24.1 Q 78.45 25.15 77.9 26.275 Q 77.35 27.4 77.35 28.7 Q 77.35 29.45 77.675 30.15 A 1.13 1.13 0 0 0 78.474 30.803 A 1.824 1.824 0 0 0 78.9 30.85 Z" vector-effect="non-scaling-stroke"/></g></svg>
